<?xml version="1.0" encoding="utf-8"?>
<!-- Generator: Adobe Illustrator 20.0.0, SVG Export Plug-In . SVG Version: 6.00 Build 0)  -->
<svg version="1.1" id="Warstwa_1" xmlns="http://www.w3.org/2000/svg" xmlns:xlink="http://www.w3.org/1999/xlink" x="0px" y="0px"
	 viewBox="0 0 185.8 51.8" style="enable-background:new 0 0 185.8 51.8;" xml:space="preserve">
<style type="text/css">
	.st0{fill:#1D1D1B;}
	.st1{fill:#00B1EB;}
</style>
<g>
	<g>
		<path class="st0" d="M78.6,37.3c0.4-0.2,0.6-0.6,0.6-1.1c0-0.4-0.2-0.8-0.5-1.1c-0.3-0.3-0.7-0.4-1.2-0.4h-2.3V40h2.4
			c0.4,0,0.8-0.1,1.2-0.4c0.3-0.3,0.5-0.7,0.5-1.1C79.4,37.9,79.1,37.5,78.6,37.3z M78.2,36.7c-0.2,0.1-0.4,0.2-0.6,0.2h-1.5v-1.4
			h1.5c0.2,0,0.4,0.1,0.6,0.2c0.2,0.1,0.3,0.3,0.3,0.5C78.4,36.4,78.4,36.6,78.2,36.7z M78.3,39c-0.2,0.1-0.4,0.2-0.6,0.2h-1.6v-1.4
			h1.6c0.2,0,0.4,0.1,0.6,0.2c0.2,0.1,0.3,0.3,0.3,0.5C78.6,38.7,78.5,38.9,78.3,39z"/>
		<rect x="82.2" y="34.7" class="st0" width="0.8" height="5.3"/>
		<path class="st0" d="M88.4,37.8H90v0.8c-0.4,0.5-0.9,0.7-1.5,0.7c-0.5,0-1-0.2-1.4-0.6c-0.4-0.4-0.6-0.9-0.6-1.4
			c0-0.5,0.2-1,0.6-1.4c0.4-0.4,0.9-0.6,1.4-0.6c0.3,0,0.6,0.1,0.9,0.2c0.3,0.1,0.5,0.3,0.7,0.6l0.1,0.1l0.7-0.5l-0.1-0.1
			c-0.3-0.4-0.6-0.6-1-0.8c-0.4-0.2-0.8-0.3-1.3-0.3c-0.8,0-1.4,0.3-2,0.8c-0.5,0.6-0.8,1.2-0.8,2c0,0.8,0.3,1.4,0.8,2
			c0.6,0.5,1.2,0.8,2,0.8c0.5,0,0.9-0.1,1.3-0.3c0.4-0.2,0.7-0.5,1-0.9l0,0v-1.9h-2.4V37.8z"/>
		<path class="st0" d="M100.9,34.7h-2V40h2c0.7,0,1.4-0.3,1.9-0.8c0.5-0.5,0.8-1.2,0.8-1.9c0-0.7-0.3-1.4-0.8-1.9
			C102.3,34.9,101.6,34.7,100.9,34.7z M100.9,39.2h-1.2v-3.7h1.2c0.5,0,0.9,0.2,1.3,0.5c0.4,0.4,0.5,0.8,0.5,1.3
			c0,0.5-0.2,0.9-0.5,1.3C101.8,39,101.4,39.2,100.9,39.2z"/>
		<path class="st0" d="M107.7,34.7l-1.9,5.3h0.9l0.4-1.2h2.1l0.4,1.2h0.9l-1.9-5.3H107.7z M108.8,38h-1.5l0.8-2.1L108.8,38z"/>
		<polygon class="st0" points="112,35.5 113.7,35.5 113.7,40 114.5,40 114.5,35.5 116.2,35.5 116.2,34.7 112,34.7 		"/>
		<path class="st0" d="M119.7,34.7l-1.9,5.3h0.9l0.4-1.2h2.1l0.4,1.2h0.9l-1.9-5.3H119.7z M120.8,38h-1.5l0.8-2.1L120.8,38z"/>
		<path class="st0" d="M133.5,37.2l-1.6-0.3c-0.5-0.1-0.8-0.4-0.8-0.7c0-0.3,0.1-0.5,0.4-0.6c0.1-0.1,0.2-0.1,0.4-0.1
			c0.1,0,0.3,0,0.4,0c0.3,0,0.6,0.1,0.8,0.2c0.3,0.1,0.4,0.3,0.4,0.6v0.1h0.8v-0.1c0-0.5-0.2-0.9-0.7-1.2c-0.4-0.3-0.8-0.4-1.3-0.4
			c-0.5,0-1,0.1-1.3,0.4c-0.5,0.3-0.7,0.7-0.7,1.2c0,0.7,0.3,1.1,0.9,1.4c0.3,0.1,0.5,0.1,0.8,0.2c0.3,0.1,0.5,0.1,0.8,0.2
			c0.5,0.1,0.8,0.4,0.8,0.7c0,0.3-0.1,0.5-0.5,0.6c-0.2,0.1-0.5,0.2-0.9,0.2c-0.3,0-0.6-0.1-0.9-0.2c-0.3-0.1-0.5-0.3-0.5-0.6v-0.1
			h-0.8v0.1c0,0.5,0.2,0.9,0.7,1.2c0.4,0.3,0.9,0.4,1.4,0.4c0.5,0,1-0.1,1.4-0.4c0.5-0.3,0.7-0.7,0.7-1.2
			C134.4,37.9,134.1,37.4,133.5,37.2z"/>
		<path class="st0" d="M141.2,38.8c-0.4,0.4-0.9,0.6-1.4,0.6c-0.5,0-1-0.2-1.4-0.6c-0.4-0.4-0.6-0.9-0.6-1.4c0-0.5,0.2-1,0.6-1.4
			c0.4-0.4,0.9-0.6,1.4-0.6c0.5,0,1,0.2,1.4,0.6l0.1,0.1l0.6-0.6l-0.1-0.1c-0.5-0.5-1.2-0.8-2-0.8c-0.8,0-1.4,0.3-2,0.8
			c-0.5,0.6-0.8,1.2-0.8,2c0,0.8,0.3,1.4,0.8,2c0.6,0.5,1.2,0.8,2,0.8c0.8,0,1.4-0.3,2-0.8l0.1-0.1L141.2,38.8L141.2,38.8z"/>
		<rect x="144.6" y="34.7" class="st0" width="0.8" height="5.3"/>
		<polygon class="st0" points="148.3,40 152.1,40 152.1,39.2 149.1,39.2 149.1,37.8 151.4,37.8 151.4,36.9 149.1,36.9 149.1,35.5 
			152.1,35.5 152.1,34.7 148.3,34.7 		"/>
		<polygon class="st0" points="158.4,38.5 155.7,34.7 154.9,34.7 154.9,40 155.7,40 155.7,36.2 158.5,40 159.2,40 159.2,34.7 
			158.4,34.7 		"/>
		<path class="st0" d="M166.1,38.8c-0.4,0.4-0.9,0.6-1.4,0.6c-0.5,0-1-0.2-1.4-0.6c-0.4-0.4-0.6-0.9-0.6-1.4c0-0.5,0.2-1,0.6-1.4
			c0.4-0.4,0.9-0.6,1.4-0.6c0.5,0,1,0.2,1.4,0.6l0.1,0.1l0.6-0.6l-0.1-0.1c-0.5-0.5-1.2-0.8-2-0.8c-0.8,0-1.4,0.3-2,0.8
			c-0.5,0.6-0.8,1.2-0.8,2c0,0.8,0.3,1.4,0.8,2c0.6,0.5,1.2,0.8,2,0.8c0.8,0,1.4-0.3,2-0.8l0.1-0.1L166.1,38.8L166.1,38.8z"/>
		<polygon class="st0" points="173.3,35.5 173.3,34.7 169.5,34.7 169.5,40 173.3,40 173.3,39.2 170.3,39.2 170.3,37.8 172.6,37.8 
			172.6,36.9 170.3,36.9 170.3,35.5 		"/>
	</g>
	<g>
		<path class="st0" d="M21.5,30.6v-2.7c-1.5,2.1-3.5,3.2-6,3.2c-2.1,0-3.9-0.8-5.4-2.4C8.7,27.1,8,25.3,8,23.1c0-2.2,0.7-4,2.1-5.6
			c1.4-1.6,3.2-2.4,5.4-2.4c2.5,0,4.5,1.1,6,3.2v-7.7H24v20H21.5z M19.8,19.2c-1.1-1.1-2.4-1.6-3.9-1.6c-1.5,0-2.8,0.5-3.9,1.6
			c-0.5,0.6-0.9,1.1-1.2,1.8c-0.3,0.6-0.4,1.3-0.4,2.1c0,1.5,0.5,2.8,1.6,3.9c1.1,1.1,2.4,1.6,3.9,1.6c1.5,0,2.8-0.5,3.9-1.6
			c1.1-1.1,1.6-2.4,1.6-3.9C21.5,21.6,20.9,20.3,19.8,19.2z"/>
		<path class="st0" d="M40.9,24.3H27.6c0.2,1.2,0.9,2.2,1.9,3.1c1,0.8,2.2,1.2,3.4,1.2c1.7,0,3.1-0.7,4.3-2l2.1,1.3
			c-0.7,1-1.7,1.8-2.8,2.3c-1.1,0.6-2.3,0.8-3.6,0.8c-2.2,0-4.1-0.8-5.7-2.4c-1.6-1.6-2.3-3.4-2.3-5.6c0-2.2,0.8-4.1,2.3-5.7
			c1.6-1.6,3.5-2.3,5.7-2.3c2.2,0,4.1,0.8,5.7,2.3c1.6,1.6,2.3,3.5,2.3,5.7C41,23.5,40.9,24,40.9,24.3z M36.4,18.8
			c-1-0.8-2.1-1.2-3.4-1.2c-1.3,0-2.4,0.4-3.4,1.2c-1,0.8-1.7,1.8-1.9,3.1h10.7C38,20.6,37.4,19.6,36.4,18.8z"/>
		<path class="st0" d="M57.2,24.3H43.9c0.2,1.2,0.9,2.2,1.9,3.1c1,0.8,2.2,1.2,3.4,1.2c1.7,0,3.1-0.7,4.3-2l2.1,1.3
			c-0.7,1-1.7,1.8-2.8,2.3c-1.1,0.6-2.3,0.8-3.6,0.8c-2.2,0-4.1-0.8-5.7-2.4c-1.6-1.6-2.3-3.4-2.3-5.6c0-2.2,0.8-4.1,2.3-5.7
			c1.6-1.6,3.5-2.3,5.7-2.3c2.2,0,4.1,0.8,5.7,2.3c1.6,1.6,2.3,3.5,2.3,5.7C57.3,23.5,57.3,24,57.2,24.3z M52.7,18.8
			c-1-0.8-2.1-1.2-3.4-1.2c-1.3,0-2.4,0.4-3.4,1.2c-1,0.8-1.7,1.8-1.9,3.1h10.7C54.4,20.6,53.7,19.6,52.7,18.8z"/>
		<path class="st0" d="M72.1,28.7c-1.4,1.6-3.2,2.4-5.4,2.4c-2.5,0-4.5-1.1-6-3.2v7.7h-2.5v-20h2.5v2.7c1.5-2.1,3.5-3.2,6-3.2
			c2.2,0,3.9,0.8,5.4,2.4c1.5,1.6,2.2,3.5,2.2,5.6C74.3,25.3,73.6,27.1,72.1,28.7z M70.1,19.2c-1.1-1.1-2.4-1.6-3.9-1.6
			c-1.5,0-2.8,0.5-3.9,1.6c-0.5,0.6-0.9,1.1-1.2,1.8c-0.3,0.6-0.4,1.3-0.4,2.1c0,1.5,0.5,2.8,1.6,3.9c1.1,1.1,2.4,1.6,3.9,1.6
			c1.5,0,2.8-0.5,3.9-1.6c1.1-1.1,1.6-2.4,1.6-3.9C71.8,21.6,71.2,20.3,70.1,19.2z"/>
		<path class="st0" d="M152.4,30.1c-0.3,0.3-0.7,0.5-1.2,0.5c-0.5,0-0.9-0.2-1.2-0.5c-0.3-0.3-0.5-0.7-0.5-1.2
			c0-0.5,0.2-0.9,0.5-1.2c0.3-0.3,0.7-0.5,1.2-0.5c0.5,0,0.9,0.2,1.2,0.5c0.3,0.3,0.5,0.7,0.5,1.2C152.9,29.4,152.7,29.8,152.4,30.1
			z"/>
		<path class="st0" d="M157,13.1c-0.3,0.3-0.8,0.5-1.3,0.5c-0.5,0-0.9-0.2-1.2-0.5c-0.3-0.3-0.5-0.7-0.5-1.2c0-0.5,0.2-0.9,0.5-1.2
			c0.3-0.3,0.7-0.5,1.2-0.5c0.5,0,0.9,0.2,1.3,0.5c0.3,0.3,0.5,0.7,0.5,1.2C157.5,12.3,157.3,12.7,157,13.1z M154.5,30.6v-15h2.5v15
			H154.5z"/>
		<path class="st0" d="M171.6,28.7c-1.6,1.6-3.5,2.4-5.7,2.4c-2.2,0-4.1-0.8-5.7-2.4c-1.6-1.6-2.3-3.4-2.3-5.6
			c0-2.2,0.8-4.1,2.3-5.7c1.6-1.6,3.5-2.3,5.7-2.3c2.2,0,4.1,0.8,5.7,2.3c1.6,1.6,2.3,3.5,2.3,5.7C174,25.3,173.2,27.2,171.6,28.7z
			 M169.8,19.2c-1.1-1.1-2.4-1.6-3.9-1.6c-1.5,0-2.8,0.5-3.9,1.6c-0.5,0.6-0.9,1.1-1.2,1.8c-0.3,0.6-0.4,1.3-0.4,2.1
			c0,1.5,0.5,2.8,1.6,3.9c1.1,1.1,2.4,1.6,3.9,1.6c1.5,0,2.8-0.5,3.9-1.6c1.1-1.1,1.6-2.4,1.6-3.9C171.4,21.6,170.9,20.3,169.8,19.2
			z"/>
	</g>
	<g>
		<path class="st1" d="M85.4,30c-0.6,0.4-1.3,0.6-1.9,0.8c-0.7,0.2-1.4,0.3-2.2,0.3c-0.8,0-1.5-0.1-2.2-0.3
			c-0.7-0.2-1.3-0.5-1.9-0.8C75.7,29.1,75,28,75,26.5h2.5c0,0.8,0.5,1.4,1.4,1.7c0.6,0.2,1.4,0.4,2.4,0.4c2.5,0,3.8-0.7,3.8-2.1
			c0-1-0.8-1.7-2.5-2c-1.5-0.3-2.6-0.5-3.4-0.7c-0.8-0.2-1.2-0.3-1.3-0.3c-1.7-0.6-2.5-1.9-2.5-3.8c0-1.5,0.7-2.6,2-3.5
			c1.1-0.8,2.5-1.1,4-1.1c1.5,0,2.8,0.4,4,1.1c1.3,0.9,2,2,2,3.5h-2.5c0-0.7-0.4-1.3-1.3-1.7c-0.6-0.3-1.4-0.4-2.2-0.4
			c-0.9,0-1.6,0.1-2.3,0.4c-0.8,0.4-1.3,0.9-1.3,1.7c0,1,0.8,1.7,2.5,2c1.5,0.3,2.6,0.5,3.4,0.7c0.8,0.2,1.2,0.3,1.3,0.3
			c1.7,0.6,2.5,1.9,2.5,3.8C87.5,28,86.8,29.1,85.4,30z"/>
		<path class="st1" d="M104.1,24.3H90.8c0.2,1.2,0.9,2.2,1.9,3.1c1,0.8,2.2,1.2,3.4,1.2c1.7,0,3.1-0.7,4.3-2l2.1,1.3
			c-0.7,1-1.7,1.8-2.8,2.3c-1.1,0.6-2.3,0.8-3.6,0.8c-2.2,0-4.1-0.8-5.7-2.4c-1.6-1.6-2.3-3.4-2.3-5.6c0-2.2,0.8-4.1,2.3-5.7
			c1.6-1.6,3.5-2.3,5.7-2.3c2.2,0,4.1,0.8,5.7,2.3c1.6,1.6,2.3,3.5,2.3,5.7C104.2,23.5,104.2,24,104.1,24.3z M99.6,18.8
			c-1-0.8-2.1-1.2-3.4-1.2c-1.3,0-2.4,0.4-3.4,1.2c-1,0.8-1.7,1.8-1.9,3.1h10.7C101.3,20.6,100.6,19.6,99.6,18.8z"/>
		<path class="st1" d="M115.7,30.6v-9c0-1.1-0.4-2.1-1.2-2.8c-0.8-0.8-1.7-1.2-2.8-1.2c-1.1,0-2.1,0.4-2.8,1.2
			c-0.8,0.8-1.2,1.7-1.2,2.8v9h-2.5v-15h2.5v1.7c1.2-1.5,2.7-2.2,4.5-2.2c1.7,0,3.2,0.7,4.3,2c1.1,1.3,1.7,2.8,1.7,4.5v9H115.7z"/>
		<path class="st1" d="M129.7,30c-0.6,0.4-1.3,0.6-1.9,0.8c-0.7,0.2-1.4,0.3-2.2,0.3s-1.5-0.1-2.2-0.3c-0.7-0.2-1.3-0.5-1.9-0.8
			c-1.4-0.9-2.1-2.1-2.1-3.5h2.5c0,0.8,0.5,1.4,1.4,1.7c0.6,0.2,1.4,0.4,2.4,0.4c2.5,0,3.8-0.7,3.8-2.1c0-1-0.8-1.7-2.5-2
			c-1.5-0.3-2.6-0.5-3.4-0.7c-0.8-0.2-1.2-0.3-1.3-0.3c-1.7-0.6-2.5-1.9-2.5-3.8c0-1.5,0.7-2.6,2-3.5c1.1-0.8,2.5-1.1,4-1.1
			c1.5,0,2.8,0.4,4,1.1c1.3,0.9,2,2,2,3.5H129c0-0.7-0.4-1.3-1.3-1.7c-0.6-0.3-1.4-0.4-2.2-0.4c-0.9,0-1.6,0.1-2.3,0.4
			c-0.8,0.4-1.3,0.9-1.3,1.7c0,1,0.8,1.7,2.5,2c1.5,0.3,2.6,0.5,3.4,0.7c0.8,0.2,1.2,0.3,1.3,0.3c1.7,0.6,2.5,1.9,2.5,3.8
			C131.8,28,131.1,29.1,129.7,30z"/>
		<path class="st1" d="M148.4,24.3h-13.3c0.2,1.2,0.9,2.2,1.9,3.1c1,0.8,2.2,1.2,3.4,1.2c1.7,0,3.1-0.7,4.3-2l2.1,1.3
			c-0.7,1-1.7,1.8-2.8,2.3c-1.1,0.6-2.3,0.8-3.6,0.8c-2.2,0-4.1-0.8-5.7-2.4c-1.6-1.6-2.3-3.4-2.3-5.6c0-2.2,0.8-4.1,2.3-5.7
			c1.6-1.6,3.5-2.3,5.7-2.3c2.2,0,4.1,0.8,5.7,2.3c1.6,1.6,2.3,3.5,2.3,5.7C148.5,23.5,148.4,24,148.4,24.3z M143.9,18.8
			c-1-0.8-2.1-1.2-3.4-1.2c-1.3,0-2.4,0.4-3.4,1.2c-1,0.8-1.7,1.8-1.9,3.1h10.7C145.5,20.6,144.9,19.6,143.9,18.8z"/>
	</g>
</g>
</svg>
