<?xml version="1.0" encoding="utf-8"?>
<!-- Generator: Adobe Illustrator 21.1.0, SVG Export Plug-In . SVG Version: 6.00 Build 0)  -->
<svg version="1.1" id="Warstwa_1" xmlns="http://www.w3.org/2000/svg" xmlns:xlink="http://www.w3.org/1999/xlink" x="0px" y="0px"
	 viewBox="0 0 1538.6 298" style="enable-background:new 0 0 1538.6 298;" xml:space="preserve">
<style type="text/css">
	.st0{fill:#1BAFE5;}
</style>
<g>
	<path d="M225.3,67.8c-40,0-72.5,32.5-72.5,72.5c0,40,32.5,72.5,72.5,72.5c20,0,38.1-8.1,51.3-21.2l-16.9-16.9
		c-8.8,8.8-21,14.2-34.4,14.2c-22.9,0-42-15.8-47.2-37h119.7v-11.8c0-0.1,0-0.1,0-0.2C297.6,100.1,265.3,67.8,225.3,67.8z
		 M225.3,91.7c22.9,0,42,15.8,47.2,37h-94.5C183.3,107.5,202.5,91.7,225.3,91.7z"/>
	<path d="M378.2,67.8c-40,0-72.5,32.5-72.5,72.5c0,40,32.5,72.5,72.5,72.5c20,0,38.1-8.1,51.3-21.2l-16.9-16.9
		c-8.8,8.8-21,14.2-34.4,14.2c-22.9,0-42-15.8-47.2-37h119.7v-12.3c0-0.2,0-0.5,0-0.7C449.9,99.5,417.7,67.8,378.2,67.8z
		 M378.2,91.7c22.9,0,42,15.8,47.2,37h-94.5C336.2,107.5,355.3,91.7,378.2,91.7z"/>
	<path class="st0" d="M802.4,67.8c-40,0-72.5,32.5-72.5,72.5c0,40,32.5,72.5,72.5,72.5c20,0,38.1-8.1,51.3-21.2l-16.9-16.9
		c-8.8,8.8-21,14.2-34.4,14.2c-22.9,0-42-15.8-47.2-37h119.7v-8.1c0-1.2-0.2-2.4-0.4-3.6h0.4C874.9,100.3,842.5,67.8,802.4,67.8z
		 M802.4,91.7c22.9,0,42,15.8,47.2,37h-94.5C760.4,107.5,779.6,91.7,802.4,91.7z"/>
	<path class="st0" d="M700.4,135.8c-15-5.8-28.8-5.6-42.1-8.3c-14.6-2.8-21.9-6.7-21.9-17.6c0-6.3,3.5-10.9,10.7-14.2
		c5.5-2.5,12.1-3.7,19.8-3.7c7.7,0,14.2,1.3,19.5,3.7c7.2,3.3,10.7,7.9,10.7,14.2v1h24.5v-1c0-13.1-6.2-23.8-18.3-31.8
		c-10.5-6.9-22.7-10.4-36.3-10.4c-13.9,0-26.2,3.5-36.3,10.4c-12.2,7.8-18.4,18.5-18.4,31.8c0,17.3,7.8,29,23.2,35
		c1.1,0.4,5,1.9,12,3.4c7.2,1.5,17.4,2.8,30.3,5.5c14.4,2.8,21.7,5.4,21.7,16.8c0,12.1-10.6,17.9-32.5,17.9
		c-8.9,0-15.9-1.1-20.9-3.3c-8-3.1-11.9-7.9-11.9-14.7v-1h-24.2v1c0,13.4,6.4,24.3,19.2,32.3c5.5,3.3,11.4,5.8,17.6,7.5
		c6.2,1.7,13,2.6,20.2,2.6c7.2,0,14-0.9,20.1-2.6c6.1-1.7,12-4.3,17.5-7.5c12.7-8,19.1-18.9,19.1-32.3
		C723.6,153.4,715.8,141.7,700.4,135.8z"/>
	<path class="st0" d="M1203.3,67.8c-40,0-72.5,32.5-72.5,72.5c0,40,32.5,72.5,72.5,72.5c20,0,38.1-8.1,51.3-21.2l-16.9-16.9
		c-8.8,8.8-21,14.2-34.4,14.2c-22.9,0-42-15.8-47.2-37h119.7v-8.1c0-1.2-0.2-2.4-0.4-3.6h0.4C1275.8,100.3,1243.3,67.8,1203.3,67.8z
		 M1203.3,91.7c22.9,0,42,15.8,47.2,37h-94.5C1161.3,107.5,1180.4,91.7,1203.3,91.7z"/>
	<path class="st0" d="M1102.3,135.8c-15-5.8-28.8-5.6-42.1-8.3c-14.6-2.8-21.9-6.7-21.9-17.6c0-6.3,3.5-10.9,10.7-14.2
		c5.5-2.5,12.1-3.7,19.8-3.7c7.7,0,14.2,1.3,19.5,3.7c7.2,3.3,10.7,7.9,10.7,14.2v1h24.5v-1c0-13.1-6.2-23.8-18.3-31.8
		c-10.5-6.9-22.7-10.4-36.3-10.4c-13.9,0-26.2,3.5-36.3,10.4c-12.2,7.8-18.4,18.5-18.4,31.8c0,17.3,7.8,29,23.2,35
		c1.1,0.4,5,1.9,12,3.4c7.2,1.5,17.4,2.8,30.3,5.5c14.4,2.8,21.7,5.4,21.7,16.8c0,12.1-10.6,17.9-32.5,17.9
		c-8.9,0-15.9-1.1-20.9-3.3c-8-3.1-11.9-7.9-11.9-14.7v-1h-24.2v1c0,13.4,6.4,24.3,19.2,32.3c5.5,3.3,11.4,5.8,17.6,7.5
		c6.2,1.7,13,2.6,20.2,2.6c7.2,0,14-0.9,20.1-2.6c6.1-1.7,12-4.3,17.5-7.5c12.7-8,19.1-18.9,19.1-32.3
		C1125.5,153.4,1117.7,141.7,1102.3,135.8z"/>
	<path d="M1297.4,179.9c-4.4,0-8.1,1.5-11.1,4.5c-3,3-4.5,6.7-4.5,11.1c0,4.4,1.5,8.1,4.5,11.1c3,3,6.7,4.5,11.1,4.5
		c4.4,0,8.1-1.5,11.1-4.5c3-3,4.5-6.7,4.5-11.1c0-4.4-1.5-8.1-4.5-11.1C1305.5,181.4,1301.8,179.9,1297.4,179.9z"/>
	<path d="M1491.2,10.1c-4.4,0-8.1,1.5-11.1,4.5c-3,3-4.5,6.7-4.5,11.1c0,4.4,1.5,8.1,4.5,11.1c3,3,6.7,4.5,11.1,4.5
		c4.4,0,8.1-1.5,11.1-4.5c3-3,4.5-6.7,4.5-11.1c0-4.4-1.5-8.1-4.5-11.1C1499.3,11.6,1495.6,10.1,1491.2,10.1z"/>
	<g>
		<path d="M514.7,238.5h17.8c7,0,11.2,4.2,11.2,10.2c0,5-3.4,8.4-7,9.2c4.3,0.7,7.8,5,7.8,9.8c0,6.4-4.3,10.8-11.6,10.8h-18.2V238.5
			z M531.7,255.9c4.5,0,6.9-2.8,6.9-6.4c0-3.6-2.4-6.5-6.9-6.5h-12v12.9H531.7z M531.9,274.1c4.7,0,7.4-2.6,7.4-6.9
			c0-3.7-2.5-6.9-7.4-6.9h-12.2v13.8H531.9z"/>
		<path d="M584.7,238.5h5v40h-5V238.5z"/>
		<path d="M650.3,237.9c7.1,0,12,3.1,15.5,7.5l-4,2.5c-2.5-3.2-6.8-5.5-11.6-5.5c-8.8,0-15.4,6.7-15.4,16.3
			c0,9.5,6.7,16.3,15.4,16.3c4.8,0,8.8-2.3,10.7-4.3v-8.2h-13.7V258H666v14.5c-3.7,4.1-9.2,6.9-15.7,6.9c-11.4,0-20.6-8.3-20.6-20.8
			C629.7,246.1,638.9,237.9,650.3,237.9z"/>
		<path d="M754.1,238.5h13.7c12.4,0,20.5,8.7,20.5,20c0,11.4-8.1,20-20.5,20h-13.7V238.5z M767.8,274.1c9.7,0,15.4-7,15.4-15.5
			c0-8.6-5.5-15.6-15.4-15.6h-8.7v31.1H767.8z"/>
		<path d="M851.4,269.7h-20.3l-3.5,8.9h-5.5l16.1-40h6.2l16.1,40h-5.5L851.4,269.7z M832.6,265.2h17.3l-8.6-22.3L832.6,265.2z"/>
		<path d="M903.8,243h-12.7v-4.4h30.4v4.4h-12.7v35.6h-5V243z"/>
		<path d="M981.6,269.7h-20.3l-3.5,8.9h-5.5l16.1-40h6.2l16.1,40h-5.5L981.6,269.7z M962.8,265.2h17.3l-8.6-22.3L962.8,265.2z"/>
		<path d="M1076.5,269.1c2.6,2.9,7,5.7,12.6,5.7c7.1,0,9.4-3.8,9.4-6.9c0-4.8-4.9-6.1-10.1-7.6c-6.4-1.7-13.6-3.5-13.6-11.3
			c0-6.6,5.9-11.1,13.7-11.1c6.1,0,10.9,2,14.2,5.6l-3,3.7c-3-3.3-7.2-4.8-11.6-4.8c-4.8,0-8.2,2.6-8.2,6.4c0,4,4.6,5.2,9.7,6.6
			c6.5,1.7,14,3.8,14,12.2c0,5.8-4,11.8-14.8,11.8c-7,0-12.1-2.6-15.4-6.4L1076.5,269.1z"/>
		<path d="M1141.7,258.6c0-12.3,9.1-20.7,20.4-20.7c7.3,0,12.2,3.4,15.4,7.9l-4.2,2.3c-2.3-3.4-6.4-5.8-11.2-5.8
			c-8.6,0-15.2,6.7-15.2,16.3c0,9.5,6.7,16.3,15.2,16.3c4.7,0,8.9-2.4,11.2-5.8l4.3,2.3c-3.4,4.6-8.2,7.9-15.4,7.9
			C1150.8,279.3,1141.7,270.9,1141.7,258.6z"/>
		<path d="M1216.2,238.5h5v40h-5V238.5z"/>
		<path d="M1262.8,238.5h26.2v4.4h-21.2v12.9h20.8v4.4h-20.8v13.8h21.2v4.4h-26.2V238.5z"/>
		<path d="M1334.2,246.3v32.3h-5v-40h5.1l23,31.6v-31.6h5v40h-4.8L1334.2,246.3z"/>
		<path d="M1402.4,258.6c0-12.3,9.1-20.7,20.4-20.7c7.3,0,12.2,3.4,15.4,7.9l-4.2,2.3c-2.3-3.4-6.4-5.8-11.2-5.8
			c-8.6,0-15.2,6.7-15.2,16.3c0,9.5,6.7,16.3,15.2,16.3c4.7,0,8.9-2.4,11.2-5.8l4.3,2.3c-3.4,4.6-8.2,7.9-15.4,7.9
			C1411.4,279.3,1402.4,270.9,1402.4,258.6z"/>
		<path d="M1476.8,238.5h26.2v4.4h-21.2v12.9h20.8v4.4h-20.8v13.8h21.2v4.4h-26.2V238.5z"/>
	</g>
	<path d="M121.7,0v87.1c-12.9-12-30.2-19.3-49.2-19.3c-40,0-72.5,32.5-72.5,72.5c0,40,32.5,72.5,72.5,72.5c19,0,36.3-7.3,49.2-19.3
		v19.3l23.3,0V0L121.7,0z M72.5,189c-26.9,0-48.6-21.8-48.6-48.6s21.8-48.6,48.6-48.6c26.9,0,48.6,21.8,48.6,48.6S99.4,189,72.5,189
		z"/>
	<path d="M531,67.8c-19,0-36.3,7.3-49.2,19.3V62.8l-23.3,0.1v215.6l23.3,0v-85c12.9,12,30.2,19.3,49.2,19.3
		c40,0,72.5-32.5,72.5-72.5C603.5,100.3,571,67.8,531,67.8z M531,189c-26.9,0-48.6-21.8-48.6-48.6s21.8-48.6,48.6-48.6
		c26.9,0,48.6,21.8,48.6,48.6S557.9,189,531,189z"/>
	<polygon points="1479.6,67.7 1479.6,212.8 1502.8,212.8 1502.8,67.7 	"/>
	<path d="M1440.6,67.7v19.4c-12.9-12-30.2-19.3-49.2-19.3c-40,0-72.5,32.5-72.5,72.5c0,40,32.5,72.5,72.5,72.5
		c19,0,36.3-7.3,49.2-19.3v19.3l23.3,0V67.7H1440.6z M1391.4,189c-26.9,0-48.6-21.8-48.6-48.6s21.8-48.6,48.6-48.6
		s48.6,21.8,48.6,48.6S1418.2,189,1391.4,189z"/>
	<path class="st0" d="M988,85c-10.5-12.1-23.8-18.2-39.4-18.2c-17.3,0-29.8,5.1-39.4,15.9V67.7H885v143.4l24.2,0v-85.4
		c0-9.6,3.4-17.8,10.2-24.6c6.8-6.8,15-10.2,24.6-10.2c9.6,0,17.8,3.4,24.6,10.2c6.8,6.8,10.2,15,10.2,24.6v85.3l24.5,0v-85.4
		C1003.3,110.3,998.1,96.5,988,85z"/>
</g>
</svg>
