<svg xmlns="http://www.w3.org/2000/svg" viewBox="0 0 40 30"><defs><style>.a{fill:#fff;}.b{fill:none;stroke:#0197c8;stroke-miterlimit:10;stroke-width:1.5px;}</style></defs><title>toolbar-move</title><polygon class="a" points="28.81 23.02 30.37 9.44 26.75 8.92 26.7 5.17 23.47 4.57 22.66 5.55 21.79 3.92 18.83 4.21 18.22 8.5 16.5 5.5 13.56 6.4 14.81 17.32 11.7 14.69 9.6 16.69 19.31 26.61 25.1 26.15 28.81 23.02"/><path class="b" d="M22.23,14.8V5.29a1.79,1.79,0,0,0-1.79-1.79h0a1.79,1.79,0,0,0-1.79,1.79h0v9.39"/><path class="b" d="M22.23,14.87l.7-8.78a1.79,1.79,0,1,1,3.58,0l-.63,8.68"/><path class="b" d="M18.65,14.87,17.22,7.12a1.91,1.91,0,0,0-1.79-1.79,1.69,1.69,0,0,0-1.79,1.79l1.43,10.59-2.31-2.31a1.79,1.79,0,0,0-2.61,2.45l.07.08,7.32,7.22a6.37,6.37,0,0,0,3.93,1.36H23a6.41,6.41,0,0,0,6.41-6.41l.9-9.71A1.7,1.7,0,0,0,28.5,8.6c-1,0-1.54.71-1.79,1.79l-.82,4.48"/></svg>