<svg xmlns="http://www.w3.org/2000/svg" viewBox="0 0 40 30"><defs><style>.a{fill:#fff;stroke:#0197c8;stroke-miterlimit:10;}.b{fill:#0197c8;}</style></defs><title>toolbar-fullscreen</title><rect class="a" x="7.74" y="5.69" width="24.52" height="18.62"/><rect class="b" x="19.45" y="7.87" width="1.07" height="14.06" transform="translate(16.39 -9.77) rotate(45)"/><rect class="b" x="24.46" y="9.36" width="1.07" height="3.61"/><rect class="b" x="23.16" y="8.06" width="1.07" height="3.65" transform="translate(13.8 33.59) rotate(-90)"/><rect class="b" x="14.47" y="16.75" width="1.07" height="3.61" transform="translate(30.02 37.11) rotate(180)"/><rect class="b" x="15.77" y="18" width="1.07" height="3.65" transform="translate(36.13 3.52) rotate(90)"/><rect class="b" x="19.43" y="7.82" width="1.07" height="14.06" transform="translate(44.57 11.23) rotate(135)"/><rect class="b" x="23.16" y="18.05" width="1.07" height="3.61" transform="translate(43.54 -3.84) rotate(90)"/><rect class="b" x="24.43" y="16.73" width="1.07" height="3.65"/><rect class="b" x="15.77" y="8.06" width="1.07" height="3.61" transform="translate(6.44 26.17) rotate(-90)"/><rect class="b" x="14.5" y="9.34" width="1.07" height="3.65" transform="translate(30.06 22.33) rotate(-180)"/></svg>