<svg xmlns="http://www.w3.org/2000/svg" viewBox="0 0 40 30"><defs><style>.a{fill:#fff;stroke:#0197c8;stroke-miterlimit:10;stroke-width:0.93px;}</style></defs><title>toolbar-node</title><rect class="a" x="3.94" y="4.13" width="32.12" height="21.74" rx="1.9" ry="1.9"/><path d="M14.53,18.74H13.24l-3.16-5.12h0l0,.29q.06.82.06,1.49v3.34h-1V12.32h1.27l3.15,5.09h0c0-.07,0-.31,0-.74s0-.75,0-1V12.32h1Z"/><path d="M20.43,16.3a2.65,2.65,0,0,1-.61,1.86,2.19,2.19,0,0,1-1.7.67,2.33,2.33,0,0,1-1.2-.31,2,2,0,0,1-.8-.88,3,3,0,0,1-.28-1.34,2.64,2.64,0,0,1,.61-1.85,2.2,2.2,0,0,1,1.71-.66,2.14,2.14,0,0,1,1.67.68A2.62,2.62,0,0,1,20.43,16.3Zm-3.54,0q0,1.68,1.24,1.68t1.23-1.68q0-1.66-1.24-1.67a1.06,1.06,0,0,0-.94.43A2.19,2.19,0,0,0,16.89,16.3Z"/><path d="M23.25,18.83a1.69,1.69,0,0,1-1.42-.66,3,3,0,0,1-.51-1.85,3,3,0,0,1,.52-1.86,1.71,1.71,0,0,1,1.43-.67,1.68,1.68,0,0,1,1.46.71h.05a6.2,6.2,0,0,1-.07-.83V11.91h1v6.84h-.81l-.18-.64h0A1.65,1.65,0,0,1,23.25,18.83Zm.28-.83a1.12,1.12,0,0,0,.93-.36,1.88,1.88,0,0,0,.3-1.16v-.14a2.18,2.18,0,0,0-.3-1.31,1.11,1.11,0,0,0-.94-.39,1,1,0,0,0-.84.44,2.26,2.26,0,0,0-.29,1.26,2.21,2.21,0,0,0,.29,1.23A1,1,0,0,0,23.53,18Z"/><path d="M29.35,18.83a2.35,2.35,0,0,1-1.77-.66,2.51,2.51,0,0,1-.64-1.82,2.76,2.76,0,0,1,.59-1.87,2.05,2.05,0,0,1,1.63-.68,2,2,0,0,1,1.52.58A2.23,2.23,0,0,1,31.23,16v.56H28a1.6,1.6,0,0,0,.38,1.09,1.33,1.33,0,0,0,1,.38,3.78,3.78,0,0,0,.8-.08,4.24,4.24,0,0,0,.8-.27v.84a3.13,3.13,0,0,1-.76.26A4.77,4.77,0,0,1,29.35,18.83Zm-.19-4.25a1,1,0,0,0-.79.31,1.49,1.49,0,0,0-.35.91h2.21a1.35,1.35,0,0,0-.29-.91A1,1,0,0,0,29.16,14.58Z"/></svg>